<?xml version="1.0" standalone="no"?><!DOCTYPE svg PUBLIC "-//W3C//DTD SVG 1.1//EN" "http://www.w3.org/Graphics/SVG/1.1/DTD/svg11.dtd"><svg t="1625380546331" class="icon" viewBox="0 0 1024 1024" version="1.1" xmlns="http://www.w3.org/2000/svg" p-id="709" xmlns:xlink="http://www.w3.org/1999/xlink" width="200" height="200"><defs><style type="text/css"></style></defs><path d="M514.8 547.1l-6.7 132.4c-12.9 1.4-22.9 12.2-22.9 25.4 0 14.2 11.5 25.7 25.7 25.7s25.7-11.5 25.7-25.7c0-12.4-8.7-22.7-20.4-25.1l6.7-132c8.4-0.1 16.3-1.9 23.5-5L626 676c-1.7 1.3-3.3 2.8-4.6 4.6l-14.9 21.7c-4 5.9-4.6 13.5-1.6 19.9l11.3 23.7c3.1 6.4 9.4 10.8 16.5 11.3l26.2 2.1c7.1 0.6 14-2.7 18-8.6l14.9-21.7c4-5.9 4.6-13.5 1.6-19.9l-11.3-23.7c-3.1-6.4-9.4-10.8-16.5-11.3l-26.2-2.1c-2.1-0.2-4.1 0.1-6.1 0.6l-79.8-133.7c6.4-3.9 12-9 16.5-14.9l65.9 35.4c-1.3 3.6-2.1 7.4-2.1 11.4 0 18.9 15.3 34.3 34.3 34.3 18.9 0 34.3-15.3 34.3-34.3 0-18.9-15.3-34.3-34.3-34.3-12 0-22.6 6.2-28.7 15.6l-64.9-34.9c4.2-7.4 6.8-15.7 7.5-24.7l178.5-14.7c0.4 0.6 0.7 1.3 1.1 1.9l15.9 20.9c4.3 5.7 11.4 8.6 18.4 7.7L822 505c7.1-0.9 13.1-5.5 15.9-12.1l10.2-24.2c2.8-6.6 1.8-14.1-2.5-19.8L829.7 428c-4.3-5.7-11.4-8.6-18.4-7.7l-26.1 3.3c-7.1 0.9-13.1 5.5-15.9 12.1L759 459.9c-1.3 3.2-1.8 6.6-1.4 10L582 484.3c-0.8-14.1-6.4-26.8-15.3-36.6l121.9-140.2c5.5 3.8 12.2 6.1 19.5 6.1 18.9 0 34.3-15.3 34.3-34.3 0-18.9-15.3-34.3-34.3-34.3-18.9 0-34.3 15.3-34.3 34.3 0 8.8 3.4 16.7 8.8 22.7L560.8 442.1c-3.6-3-7.5-5.6-11.7-7.7l85.3-217.7c3.2 1 6.6 1.3 10 0.7l25.8-4.9c7-1.3 12.8-6.3 15.1-13.1l8.7-24.8c2.4-6.7 0.9-14.2-3.7-19.6L673 135c-4.7-5.4-11.9-7.9-18.9-6.6l-25.8 4.9c-7 1.3-12.8 6.3-15.1 13.1l-8.7 24.8c-2.4 6.7-0.9 14.2 3.7 19.6l17.2 19.9c0.6 0.6 1.2 1.1 1.9 1.7l-85.7 218.9c-6.1-2.1-12.4-3.4-19.2-3.4-1.6 0-3.1 0.3-4.6 0.5L495.3 244c10.7-3.1 18.6-12.9 18.6-24.6 0-14.2-11.5-25.7-25.7-25.7s-25.7 11.5-25.7 25.7c0 13.9 11 25.1 24.8 25.6l22.5 184.3c-2.7 0.6-5.2 1.5-7.7 2.4L412.7 214c1.4-1 2.7-2.2 3.9-3.6l16.9-20.2c4.6-5.5 5.9-13 3.4-19.7l-9-24.7c-2.5-6.7-8.3-11.6-15.3-12.8l-25.9-4.5c-7-1.2-14.2 1.4-18.8 6.9L351 155.6c-4.6 5.5-5.9 13-3.4 19.7l9 24.7c2.5 6.7 8.3 11.6 15.3 12.8l25.9 4.5c2.5 0.4 5 0.2 7.4-0.3l89.5 218c-6.8 3.6-12.7 8.3-17.7 14.1l-143.2-104c1.8-3.5 2.9-7.4 2.9-11.6 0-14.2-11.5-25.7-25.7-25.7s-25.7 11.5-25.7 25.7 11.5 25.7 25.7 25.7c7.1 0 13.5-2.9 18.2-7.5L472 455.5c-1.1 1.7-2 3.5-2.9 5.3l-121.9-45.1c0.5-2.5 0.9-5.1 0.9-7.8 0-20.5-16.6-37.1-37.1-37.1s-37.1 16.6-37.1 37.1S290.5 445 311 445c15 0 27.8-8.9 33.6-21.6l121.3 44.9c-1.8 5.1-2.9 10.5-3.2 16.2l-196.3-16.3c-0.1-2.1-0.4-4.2-1.1-6.2l-9-24.7c-2.5-6.7-8.3-11.6-15.3-12.8l-25.9-4.5c-7-1.2-14.2 1.4-18.8 6.9l-16.9 20.2c-4.6 5.5-5.9 13-3.4 19.7l9 24.7c2.5 6.7 8.3 11.6 15.3 12.8l25.9 4.5c7 1.2 14.2-1.4 18.8-6.9l16.9-20.2c1.4-1.6 2.4-3.5 3.1-5.4l197.8 16.4c0.6 7.1 2.2 13.9 5 20L371.6 555c-6.4-11.1-18.3-18.6-32-18.6-20.5 0-37.1 16.6-37.1 37.1s16.6 37.1 37.1 37.1 37.1-16.6 37.1-37.1c0-3.9-0.8-7.6-1.9-11.1l96.9-42.7c1.3 2 2.8 3.9 4.3 5.8-62.1 77.1-140.5 219.5-173.9 383.8h16.4c33-159.8 109-297.8 169.2-372.7 7.8 5.6 17.1 9.2 27.1 10.5z" fill="#96cb0b" p-id="710"></path></svg>